HIERARCHY
ROOT Hips
{
  OFFSET 0 0 0
  CHANNELS 6 Xposition Yposition Zposition Zrotation Yrotation Xrotation
  JOINT LeftThigh
  {
    OFFSET 8.409438 0 -5.917753
    CHANNELS 3 Zrotation Yrotation Xrotation
    JOINT LeftLeg
    {
      OFFSET 0 0 -42.358652
      CHANNELS 3 Zrotation Yrotation Xrotation
      JOINT LeftFoot
      {
        OFFSET 0 0 -39.357303
        CHANNELS 3 Zrotation Yrotation Xrotation
      }
    }
  }
  JOINT RightThigh
  {
    OFFSET -8.409438 0 -5.917753
    CHANNELS 3 Zrotation Yrotation Xrotation
    JOINT RightLeg
    {
      OFFSET 0 0 -42.358652
      CHANNELS 3 Zrotation Yrotation Xrotation
      JOINT RightFoot
      {
        OFFSET 0 0 -39.357303
        CHANNELS 3 Zrotation Yrotation Xrotation
      }
    }
  }
  JOINT SpineLow
  {
    OFFSET 0 0 4.719101
    CHANNELS 3 Zrotation Yrotation Xrotation
    JOINT SpineMid
    {
      OFFSET 0 0 12.899191
      CHANNELS 3 Zrotation Yrotation Xrotation
      JOINT Chest
      {
        OFFSET 0 0 12.899191
        CHANNELS 3 Zrotation Yrotation Xrotation
        JOINT LeftShoulder
        {
          OFFSET 7.550562 1.41573 9.438202
          CHANNELS 3 Zrotation Yrotation Xrotation
          JOINT LeftArm
          {
            OFFSET 9.155056 0 4.247191
            CHANNELS 3 Zrotation Yrotation Xrotation
            JOINT LeftForearm
            {
              OFFSET 0 0 25.771955
              CHANNELS 3 Zrotation Yrotation Xrotation
              JOINT LeftHand
              {
                OFFSET 0 0 25.197169
                CHANNELS 3 Zrotation Yrotation Xrotation
              }
            }
          }
        }
        JOINT RightShoulder
        {
          OFFSET -7.550562 1.41573 9.438202
          CHANNELS 3 Zrotation Yrotation Xrotation
          JOINT RightArm
          {
            OFFSET -9.155056 0 4.247191
            CHANNELS 3 Zrotation Yrotation Xrotation
            JOINT RightForearm
            {
              OFFSET 0 0 -25.771955
              CHANNELS 3 Zrotation Yrotation Xrotation
              JOINT RightHand
              {
                OFFSET 0 0 -25.197169
                CHANNELS 3 Zrotation Yrotation Xrotation
              }
            }
          }
        }
        JOINT Neck
        {
          OFFSET 0 0 15.101124
          CHANNELS 3 Zrotation Yrotation Xrotation
          JOINT Head
          {
            OFFSET 0 0 11.325843
            CHANNELS 3 Zrotation Yrotation Xrotation
            End Site
            {
              OFFSET 0 0 14.157303
            }
          }
        }
      }
    }
  }
}
MOTION
Frames: 7
Frame Time: 0.0
0.0  89.887642  0.0  14.511853  -8.251068  -111.161266  24.366523  10.595357  -58.315829  -14.364168  13.138887  91.159463  4.397713  2.214797  -0.98432  -2.15809  11.672075  9.060787  10.395976  3.246383  18.225347  6.736605  3.262513  2.983214  2.396622  -0.66113  2.088372  6.490057  -2.010313  5.638008  6.490057  -2.010313  5.638008  -15.752707  26.114187  10.88909  -175.59234  57.696657  -144.866487  -31.135529  -24.88857  73.801773  81.228754  19.952555  33.577829  -3.648933  5.30531  17.906472  88.73678  49.410108  17.683288  -36.987574  14.724053  -60.078193  58.407774  -9.393736  -85.136504  -19.553095  7.40641  0.655075  -14.652267  5.540583  0.729789  
0.0  89.887642  0.0  14.108681  -7.574712  -110.656521  24.65183  10.781711  -58.117371  -14.273389  13.298606  90.334997  4.305452  2.257372  -1.021964  -2.305311  11.33936  8.841591  9.913821  3.221197  17.978979  6.550062  3.236666  2.991108  2.42194  -0.671134  2.098398  6.558081  -2.04073  5.663608  6.558081  -2.04073  5.663607  -15.934185  25.987954  10.778906  -174.315127  57.115125  -143.388177  -30.795408  -25.875302  74.888417  82.632523  20.828746  34.948659  -3.828229  5.501778  17.717621  87.486266  49.003514  16.949007  -37.578216  14.428133  -61.039924  59.259876  -10.045622  -85.370098  -20.073306  7.220905  0.43624  -15.040118  5.408264  0.565915  
0.0  89.887642  0.0  13.754622  -6.910106  -110.187258  25.003904  10.979147  -57.805997  -14.158107  13.427638  89.46969  4.275195  2.296273  -0.999114  -2.315322  11.067987  8.749799  9.449477  3.153627  17.714158  6.216573  3.166102  2.892321  2.456259  -0.68277  2.134142  6.649688  -2.078952  5.758962  6.649688  -2.078952  5.758963  -16.204723  25.78539  10.513541  -173.551991  56.420393  -142.299302  -30.528317  -26.945309  75.974337  83.886764  21.522993  35.89633  -4.301805  5.686192  17.233751  86.254156  48.520247  16.194941  -38.024502  14.089563  -62.114552  60.102511  -10.985223  -85.560396  -20.410969  7.069702  0.208269  -15.291114  5.302318  0.393863  
0.0  89.887642  0.0  13.328964  -6.224961  -109.619219  25.301686  11.029455  -57.592063  -13.924398  13.640395  88.617318  4.181009  2.329026  -1.007185  -2.597658  10.77108  8.31722  8.991929  3.070283  17.554879  6.09447  3.164547  2.899501  2.492911  -0.700517  2.15343  6.747683  -2.132476  5.808655  6.747683  -2.132475  5.808654  -16.508099  25.438417  10.291921  -173.263937  55.574093  -141.529502  -30.424827  -28.0797  77.12095  85.026362  22.112924  36.482823  -4.448388  5.815924  16.972335  84.904144  48.06782  15.552123  -38.743539  13.719762  -63.346089  60.872009  -12.162496  -85.542843  -21.00957  6.8765  -0.139097  -15.736589  5.169373  0.133566  
0.0  89.887642  0.0  12.883496  -5.469097  -108.92931  25.54935  11.016876  -57.45192  -13.588312  13.895739  87.80279  4.060197  2.37368  -1.029541  -2.953485  10.459916  7.852814  8.511946  3.004602  17.322388  5.94368  3.175172  2.869295  2.540245  -0.728786  2.168249  6.874111  -2.215228  5.844653  6.87411  -2.215228  5.844653  -16.955295  24.957386  9.9976  -173.438126  54.571491  -141.048666  -30.505696  -29.06347  78.328739  86.090567  22.681257  36.692894  -4.86297  5.883965  16.560123  83.725526  47.613901  15.063644  -39.505134  13.251778  -64.634972  61.583154  -13.520576  -85.371018  -21.567324  6.728648  -0.501875  -16.151276  5.071653  -0.137571  
0.0  89.887642  0.0  12.322865  -4.75118  -108.254516  25.832101  10.780849  -57.283241  -13.149364  14.178724  87.00233  3.946508  2.422365  -1.036799  -3.393474  9.96935  7.316074  8.072903  3.023166  17.164307  5.876898  3.191022  2.871627  2.589948  -0.765487  2.185235  7.00619  -2.32146  5.885512  7.006191  -2.32146  5.885511  -17.449004  24.368124  9.677551  -173.926116  53.585485  -140.83622  -30.775875  -29.898633  79.554396  86.992836  23.204725  36.527882  -5.049969  5.844519  16.265242  82.397204  47.281584  14.503389  -40.331824  12.758265  -65.94984  62.177047  -15.079665  -84.977853  -22.242761  6.507321  -0.921701  -16.654256  4.921735  -0.453313  
0.0  89.887642  0.0  11.720251  -3.977019  -107.553175  26.092959  10.453877  -57.06631  -12.609865  14.453004  86.238431  3.824977  2.480004  -1.045616  -4.121388  9.421244  6.63361  7.769355  3.076212  17.026382  5.909876  3.206443  2.90099  2.657161  -0.815589  2.23971  7.183453  -2.469885  6.026513  7.183453  -2.469885  6.026514  -18.110854  23.704656  9.052837  -174.780887  52.632037  -140.832058  -31.08224  -30.429864  80.751333  87.750107  23.68198  35.926247  -5.495432  5.818795  15.758423  81.053564  47.147664  13.829142  -41.121722  12.211863  -67.272503  62.728493  -16.881628  -84.494624  -22.904645  6.257715  -1.432602  -17.146743  4.754879  -0.839225  
